<?xml version="1.0" standalone="no"?>
<!DOCTYPE svg PUBLIC "-//W3C//DTD SVG 20010904//EN"
 "http://www.w3.org/TR/2001/REC-SVG-20010904/DTD/svg10.dtd">
<svg version="1.0" xmlns="http://www.w3.org/2000/svg"
 width="226.000000pt" height="226.000000pt" viewBox="0 0 226.000000 226.000000"
 preserveAspectRatio="xMidYMid meet">
<metadata>
Created by potrace 1.14, written by Peter Selinger 2001-2017
</metadata>
<g transform="translate(0.000000,226.000000) scale(0.100000,-0.100000)"
fill="#000000" stroke="none">
<path d="M16 1644 c-20 -20 -20 -48 0 -68 14 -14 84 -16 625 -16 402 0 617 4
630 10 23 13 25 53 3 74 -14 14 -85 16 -629 16 -544 0 -615 -2 -629 -16z"/>
<path d="M1689 1637 c-127 -43 -215 -145 -234 -271 l-7 -46 81 0 c68 0 81 3
81 16 0 39 26 98 57 129 49 49 108 68 192 63 128 -9 191 -78 191 -209 0 -69
-16 -114 -55 -154 -43 -42 -91 -58 -200 -64 l-100 -6 -2 -62 -1 -63 78 0 c105
0 170 -15 219 -51 51 -37 72 -78 78 -154 12 -148 -65 -241 -208 -250 -145 -9
-259 78 -259 198 0 15 -11 17 -81 17 l-81 0 6 -42 c16 -114 60 -182 154 -242
63 -39 124 -57 214 -60 185 -8 322 64 387 204 35 74 37 220 5 290 -26 56 -83
114 -134 136 -44 20 -50 30 -21 39 31 10 107 88 131 136 61 119 25 294 -79
387 -90 78 -276 105 -412 59z"/>
<path d="M147 1502 c-57 -2 -69 -6 -82 -25 -18 -29 -9 -63 18 -71 12 -3 272
-6 578 -6 526 0 557 1 572 18 22 24 21 45 -2 66 -18 16 -61 18 -518 19 -274 1
-528 1 -566 -1z"/>
<path d="M561 1353 c-21 -14 -21 -20 -21 -468 0 -399 2 -455 16 -469 21 -21
47 -20 67 2 15 17 17 64 17 463 0 360 -3 449 -14 464 -17 24 -39 27 -65 8z"/>
<path d="M693 1355 c-17 -13 -18 -42 -20 -462 -2 -379 0 -451 13 -470 16 -26
42 -29 68 -10 16 12 17 45 18 471 1 439 0 459 -18 469 -28 16 -41 17 -61 2z"/>
</g>
</svg>
